<?xml version="1.0" encoding="UTF-8" standalone="no"?>
<svg
   id="Camada_1"
   data-name="Camada 1"
   viewBox="0 0 800 126.78"
   version="1.1"
   sodipodi:docname="Assinatura-Azul-Vitor.svg"
   inkscape:version="1.4 (86a8ad7, 2024-10-11)"
   xmlns:inkscape="http://www.inkscape.org/namespaces/inkscape"
   xmlns:sodipodi="http://sodipodi.sourceforge.net/DTD/sodipodi-0.dtd"
   xmlns="http://www.w3.org/2000/svg"
   xmlns:svg="http://www.w3.org/2000/svg">
  <sodipodi:namedview
     id="namedview73"
     pagecolor="#505050"
     bordercolor="#eeeeee"
     borderopacity="1"
     inkscape:showpageshadow="0"
     inkscape:pageopacity="0"
     inkscape:pagecheckerboard="0"
     inkscape:deskcolor="#505050"
     inkscape:zoom="1.5697771"
     inkscape:cx="412.16044"
     inkscape:cy="76.12546"
     inkscape:window-width="1920"
     inkscape:window-height="1009"
     inkscape:window-x="-8"
     inkscape:window-y="-8"
     inkscape:window-maximized="1"
     inkscape:current-layer="Camada_1" />
  <defs
     id="defs1">
    <rect
       x="49.54955"
       y="190.09009"
       width="353.15315"
       height="90.990991"
       id="rect81" />
    <rect
       x="605.18148"
       y="203.21357"
       width="197.48027"
       height="46.503419"
       id="rect79" />
    <rect
       x="-3.1851657"
       y="180.91741"
       width="325.52394"
       height="38.221988"
       id="rect78" />
    <rect
       x="203.8506"
       y="140.78432"
       width="234.42819"
       height="36.310889"
       id="rect77" />
    <rect
       x="541.47817"
       y="151.61389"
       width="254.81325"
       height="35.036822"
       id="rect76" />
    <rect
       x="205.7617"
       y="140.14729"
       width="195.56917"
       height="59.881115"
       id="rect75" />
    <rect
       x="197.48027"
       y="136.32509"
       width="277.74645"
       height="50.962651"
       id="rect74" />
    <rect
       x="196.20621"
       y="156.07312"
       width="280.93161"
       height="43.955286"
       id="rect73" />
    <style
       id="style1">.cls-1{fill:#000144;}.cls-2{fill:#fc561e;}.cls-3{fill:#ede9e0;}.cls-4{fill:none;stroke:#fc561e;stroke-miterlimit:10;}.cls-5{fill:#fff;}</style>
    <rect
       x="541.47815"
       y="151.61389"
       width="254.81325"
       height="35.036823"
       id="rect76-9" />
    <rect
       x="-3.1851656"
       y="180.9174"
       width="325.52393"
       height="38.221989"
       id="rect78-8" />
  </defs>
  <path
     class="cls-1"
     d="M 736.61,0 H 0 v 92.2 h 34.58 v 34.58 h 702 C 771.60105,126.79657 800,98.411049 800,63.39 v 0 C 800,28.38067 771.61933,0 736.61,0 Z"
     id="path1"
     sodipodi:nodetypes="scccccsss" />
  <path
     class="cls-2"
     d="M194.21,29.43h281a11.25,11.25,0,0,1,11.25,11.25V59.21a11.25,11.25,0,0,1-11.25,11.25H183a0,0,0,0,1,0,0V40.67A11.25,11.25,0,0,1,194.21,29.43Z"
     id="path2" />
  <path
     class="cls-3"
     d="M73.92,22.69,62,48.18a6.52,6.52,0,0,1-11,1.31L40.79,36.67a3.5,3.5,0,0,0-6.23,2.19V92.22h75a11.39,11.39,0,0,0,11.39-11.39v-42a3.5,3.5,0,0,0-6.23-2.18L104.46,49.48a6.52,6.52,0,0,1-11-1.32L81.57,22.69A4.22,4.22,0,0,0,73.92,22.69Z"
     id="path3" />
  <path
     class="cls-3"
     d="M543.81,70.46l-2.59-9.16h1.58l2.52,9.16Zm.38,0v-1.3h1.9v1.3Zm.84,0,1.85-8.85h2.23l2.17,8.85h-1.41l-2.16-8.82h.55l-1.87,8.82Zm5.18,0v-1.3h1.91v1.3Zm.77,0,2.2-9.16h1.49l-2.24,9.16Z"
     id="path47" />
  <path
     class="cls-3"
     d="M558.36,70.46l-2.59-9.16h1.58l2.52,9.16Zm.38,0v-1.3h1.9v1.3Zm.84,0,1.85-8.85h2.23l2.17,8.85h-1.41l-2.16-8.82h.55l-1.87,8.82Zm5.18,0v-1.3h1.91v1.3Zm.77,0,2.2-9.16h1.49L567,70.46Z"
     id="path48" />
  <path
     class="cls-3"
     d="M572.91,70.46l-2.59-9.16h1.58l2.52,9.16Zm.38,0v-1.3h1.91v1.3Zm.84,0L576,61.61h2.23l2.17,8.85H579l-2.16-8.82h.55l-1.87,8.82Zm5.18,0v-1.3h1.91v1.3Zm.77,0,2.2-9.16h1.49l-2.24,9.16Z"
     id="path49" />
  <path
     class="cls-3"
     d="M585,70.46V68.37h2v2.09Z"
     id="path50" />
  <path
     class="cls-3"
     d="M593.43,70.77a4.45,4.45,0,0,1-1.8-.36,4.37,4.37,0,0,1-1.43-1,4.63,4.63,0,0,1-.94-1.51,4.92,4.92,0,0,1-.34-1.86v-.31a5,5,0,0,1,.33-1.83,4.48,4.48,0,0,1,.92-1.51,4,4,0,0,1,1.4-1,4.31,4.31,0,0,1,1.81-.37,4.07,4.07,0,0,1,1.91.44,3.38,3.38,0,0,1,1.4,1.36,5,5,0,0,1,.62,2.4l-.68-1.1V57.93h1.64V70.46H597V66.39h.48a5.31,5.31,0,0,1-.65,2.53,3.54,3.54,0,0,1-1.47,1.41A4.24,4.24,0,0,1,593.43,70.77Zm.23-1.44a3.09,3.09,0,0,0,1.52-.38,2.75,2.75,0,0,0,1.1-1.09,3.21,3.21,0,0,0,.41-1.67V65.4a3,3,0,0,0-.42-1.61,2.84,2.84,0,0,0-1.11-1,3.36,3.36,0,0,0-1.52-.35,2.93,2.93,0,0,0-1.6.43,2.85,2.85,0,0,0-1.08,1.2,4,4,0,0,0-.39,1.82,4,4,0,0,0,.39,1.83,2.91,2.91,0,0,0,1.1,1.2A3.06,3.06,0,0,0,593.66,69.33Z"
     id="path51" />
  <path
     class="cls-3"
     d="M605.65,70.77a5.16,5.16,0,0,1-2.11-.41A4.82,4.82,0,0,1,602,69.27a4.71,4.71,0,0,1-.94-1.52,4.85,4.85,0,0,1-.32-1.72v-.31a4.73,4.73,0,0,1,.33-1.72,4.81,4.81,0,0,1,1-1.53,4.69,4.69,0,0,1,1.55-1.08,5,5,0,0,1,2.07-.4,5.08,5.08,0,0,1,2.08.4,4.75,4.75,0,0,1,1.54,1.08,4.81,4.81,0,0,1,1,1.53,4.73,4.73,0,0,1,.33,1.72V66a4.85,4.85,0,0,1-.32,1.72,4.71,4.71,0,0,1-.94,1.52,4.82,4.82,0,0,1-1.54,1.09A5.12,5.12,0,0,1,605.65,70.77Zm0-1.48a3.29,3.29,0,0,0,1.76-.45,3,3,0,0,0,1.12-1.23,3.89,3.89,0,0,0,.38-1.73,3.82,3.82,0,0,0-.39-1.75,3,3,0,0,0-1.13-1.22,3.22,3.22,0,0,0-1.74-.45,3.26,3.26,0,0,0-1.73.45,3,3,0,0,0-1.13,1.22,3.7,3.7,0,0,0-.4,1.75,3.76,3.76,0,0,0,.39,1.73,2.94,2.94,0,0,0,1.11,1.23A3.29,3.29,0,0,0,605.65,69.29Z"
     id="path52" />
  <path
     class="cls-3"
     d="M613,70.46V61.3h1.3v3.93h-.2a6.39,6.39,0,0,1,.35-2.28,2.94,2.94,0,0,1,1-1.43,3.05,3.05,0,0,1,1.79-.5h.07a3.05,3.05,0,0,1,1.79.5A3,3,0,0,1,620.24,63a6.89,6.89,0,0,1,.34,2.28h-.48a6.38,6.38,0,0,1,.36-2.28A2.83,2.83,0,0,1,623.32,61h.07a3.11,3.11,0,0,1,1.8.5A3,3,0,0,1,626.27,63a6.62,6.62,0,0,1,.35,2.28v5.23H625V64.87a2.48,2.48,0,0,0-.55-1.73,2,2,0,0,0-1.53-.61,2.18,2.18,0,0,0-1.63.65,2.48,2.48,0,0,0-.61,1.79v5.49H619V64.87a2.48,2.48,0,0,0-.55-1.73,2,2,0,0,0-1.53-.61,2.18,2.18,0,0,0-1.63.65,2.48,2.48,0,0,0-.61,1.79v5.49Z"
     id="path53" />
  <path
     class="cls-3"
     d="M628.68,62.6V61.3h3.05v1.3Zm1.87-2.78a1.07,1.07,0,0,1-.82-1.77,1.08,1.08,0,0,1,.82-.29,1,1,0,0,1,1.08,1,1,1,0,0,1-.27.74A1,1,0,0,1,630.55,59.82Zm-.47,10.64V61.3h1.65v9.16Z"
     id="path54" />
  <path
     class="cls-3"
     d="M634.92,70.46V61.3h1.31v3.93H636a6.14,6.14,0,0,1,.37-2.29,3,3,0,0,1,1.12-1.43,3.52,3.52,0,0,1,1.91-.49h.07a3,3,0,0,1,2.56,1.08,5,5,0,0,1,.83,3.13v5.23h-1.64V64.88a2.38,2.38,0,0,0-.6-1.7,2.15,2.15,0,0,0-1.65-.65A2.3,2.3,0,0,0,636.57,65v5.47Z"
     id="path55" />
  <path
     class="cls-3"
     d="M648.44,70.7a4.2,4.2,0,0,1-1.77-.35,2.66,2.66,0,0,1-1.15-1,3.08,3.08,0,0,1-.4-1.61,2.9,2.9,0,0,1,.43-1.64,2.68,2.68,0,0,1,1.28-1,5.56,5.56,0,0,1,2-.34h2.48V66h-2.55a2.19,2.19,0,0,0-1.53.48,1.6,1.6,0,0,0-.53,1.24,1.54,1.54,0,0,0,.53,1.21,2.24,2.24,0,0,0,1.53.47,3,3,0,0,0,1.11-.22,1.93,1.93,0,0,0,.89-.72,2.62,2.62,0,0,0,.38-1.4l.45.66a4,4,0,0,1-.47,1.63,2.6,2.6,0,0,1-1.07,1A3.58,3.58,0,0,1,648.44,70.7Zm3-.24V67.72h-.28V64.54a1.88,1.88,0,0,0-.49-1.42,2,2,0,0,0-1.43-.48h-1.1l-1.08,0-.89.05V61.3c.25,0,.52,0,.8-.06l.86,0h.86a6.71,6.71,0,0,1,2.3.33,2.4,2.4,0,0,1,1.32,1.09,4.07,4.07,0,0,1,.43,2v5.8Z"
     id="path56" />
  <path
     class="cls-3"
     d="M655.45,70.46V68.37h2v2.09Z"
     id="path57" />
  <path
     class="cls-3"
     d="M663.85,70.77a4.45,4.45,0,0,1-1.8-.36,4.27,4.27,0,0,1-1.43-1,4.83,4.83,0,0,1-1-1.51,5.12,5.12,0,0,1-.33-1.86v-.31a5,5,0,0,1,.33-1.83,4.62,4.62,0,0,1,.91-1.51,4.18,4.18,0,0,1,1.41-1A4.28,4.28,0,0,1,663.8,61a4.07,4.07,0,0,1,1.91.44,3.38,3.38,0,0,1,1.4,1.36,5.16,5.16,0,0,1,.62,2.4l-.69-1.1V57.93h1.65V70.46h-1.3V66.39h.48a5.31,5.31,0,0,1-.66,2.53,3.46,3.46,0,0,1-1.46,1.41A4.24,4.24,0,0,1,663.85,70.77Zm.23-1.44A3.12,3.12,0,0,0,665.6,69a2.75,2.75,0,0,0,1.1-1.09,3.31,3.31,0,0,0,.41-1.67V65.4a3,3,0,0,0-.42-1.61,2.84,2.84,0,0,0-1.11-1,3.39,3.39,0,0,0-1.52-.35,2.88,2.88,0,0,0-2.69,1.63,4.11,4.11,0,0,0-.38,1.82,4,4,0,0,0,.39,1.83,2.85,2.85,0,0,0,1.1,1.2A3.06,3.06,0,0,0,664.08,69.33Z"
     id="path58" />
  <path
     class="cls-3"
     d="M675.74,70.77a4.87,4.87,0,0,1-2.07-.41,4.06,4.06,0,0,1-1.43-1.09,4.55,4.55,0,0,1-.81-1.52,5.57,5.57,0,0,1-.27-1.72v-.31a5.63,5.63,0,0,1,.27-1.73,4.65,4.65,0,0,1,.81-1.52,4.08,4.08,0,0,1,1.4-1.08,4.61,4.61,0,0,1,2-.4,4.32,4.32,0,0,1,2.46.64,3.91,3.91,0,0,1,1.44,1.66,5,5,0,0,1,.48,2.16v.74h-8.14V65h6.93l-.37.67a4.36,4.36,0,0,0-.31-1.69,2.53,2.53,0,0,0-.93-1.11,2.86,2.86,0,0,0-1.56-.39,2.76,2.76,0,0,0-1.62.45,2.63,2.63,0,0,0-1,1.21,4.73,4.73,0,0,0-.32,1.79,4.68,4.68,0,0,0,.32,1.76,2.66,2.66,0,0,0,1,1.23,2.93,2.93,0,0,0,1.7.46,3,3,0,0,0,1.76-.48,1.87,1.87,0,0,0,.82-1.12h1.54a3.56,3.56,0,0,1-2.18,2.68A5,5,0,0,1,675.74,70.77Z"
     id="path59" />
  <path
     class="cls-3"
     d="M684.24,70.46l-3.13-9.16h1.72l3,9.16Zm.41,0v-1.3h2v1.3Zm.79,0,2.66-9.16h1.61L687,70.46Z"
     id="path60" />
  <path
     class="cls-4"
     d="m 164.97396,0 v 59.21 a 11.272269,11.25 0 0 0 11.27227,11.25 H 475.15674 A 11.272269,11.25 0 0 0 486.42901,59.21 V 40.67 A 11.272269,11.25 0 0 0 475.15674,29.43 H 193.60051 a 11.262249,11.24 0 0 0 -11.20213,11.24 v 86.11"
     id="path71"
     style="stroke-width:1.00099" />
  <path
     class="cls-5"
     d="M549.29,83.31c2.15,0,2.4,0,3.25,0a4.28,4.28,0,0,1,1.5.28,2.41,2.41,0,0,1,.93.6,2.53,2.53,0,0,1,.6.93,4.52,4.52,0,0,1,.28,1.49c0,.85,0,1.11,0,3.26s0,2.41,0,3.26a4.6,4.6,0,0,1-.28,1.5,2.57,2.57,0,0,1-.6.92,2.43,2.43,0,0,1-.93.61,4.35,4.35,0,0,1-1.5.27c-.85,0-1.1,0-3.25,0s-2.41,0-3.26,0a4.35,4.35,0,0,1-1.5-.27,2.51,2.51,0,0,1-.93-.61,2.57,2.57,0,0,1-.6-.92,4.6,4.6,0,0,1-.28-1.5c0-.85,0-1.11,0-3.26s0-2.41,0-3.26a4.52,4.52,0,0,1,.28-1.49,2.53,2.53,0,0,1,.6-.93,2.48,2.48,0,0,1,.93-.6,4.28,4.28,0,0,1,1.5-.28c.85,0,1.1,0,3.26,0m0-1.45c-2.19,0-2.47,0-3.33,0a6,6,0,0,0-2,.37,4.14,4.14,0,0,0-2.35,2.36,5.9,5.9,0,0,0-.38,2c0,.86,0,1.13,0,3.32s0,2.47,0,3.33a5.89,5.89,0,0,0,.38,2A4.14,4.14,0,0,0,544,97.56a6,6,0,0,0,2,.38c.86,0,1.14,0,3.33,0s2.46,0,3.32,0a6,6,0,0,0,2-.38,4.14,4.14,0,0,0,2.35-2.36,5.89,5.89,0,0,0,.38-2c0-.86.05-1.14.05-3.33s0-2.46-.05-3.32a5.9,5.9,0,0,0-.38-2,4.14,4.14,0,0,0-2.35-2.36,6,6,0,0,0-2-.37c-.86,0-1.13,0-3.32,0Z"
     id="path72" />
  <path
     class="cls-5"
     d="M549.29,85.78a4.14,4.14,0,1,0,4.14,4.14A4.14,4.14,0,0,0,549.29,85.78Zm0,6.83A2.69,2.69,0,1,1,552,89.92,2.68,2.68,0,0,1,549.29,92.61Z"
     id="path73" />
  <circle
     class="cls-5"
     cx="553.59"
     cy="85.62"
     r="0.97"
     id="circle73" />
  <text
     xml:space="preserve"
     id="text74"
     style="font-style:normal;font-variant:normal;font-weight:normal;font-stretch:normal;font-family:Sora;-inkscape-font-specification:Sora;text-align:start;writing-mode:lr-tb;direction:ltr;white-space:pre;shape-inside:url(#rect74);display:inline;fill:#000144;fill-opacity:1" />
  <path
     style="-inkscape-font-specification:'Sora Semi-Bold';fill:#ede9e0"
     d="m 546.15051,174.58586 q -1.04533,-1.30133 -1.83467,-2.816 -0.78933,-1.51466 -1.21599,-3.34932 -0.42667,-1.856 -0.42667,-4.16 0,-2.32533 0.448,-4.13866 0.448,-1.83466 1.25866,-3.28533 0.81067,-1.47199 1.83467,-2.68799 h 3.30666 q -1.152,1.408 -2.048,2.94399 -0.896,1.536 -1.38666,3.30666 -0.49067,1.77067 -0.49067,3.86133 0,2.06933 0.40534,3.86133 0.42666,1.792 1.30133,3.39199 0.87466,1.6 2.21866,3.072 z m 4.39464,-7.10399 v -3.28533 l 6.10132,-9.49332 2.28267,1.55733 -5.376,8.40532 0.256,0.42667 h 9.55732 v 2.38933 z m 8.14932,3.22133 v -11.15732 h 2.79466 v 11.15732 z m 12.16,0.42666 q -1.792,0 -3.15733,-0.57599 -1.36533,-0.576 -2.13333,-1.64267 -0.768,-1.06666 -0.768,-2.53866 0,-0.98133 0.34133,-1.728 0.34133,-0.768 0.93867,-1.30133 0.59733,-0.55467 1.40799,-0.832 v -0.256 q -0.61866,-0.27733 -1.13066,-0.72533 -0.49067,-0.448 -0.78933,-1.088 -0.27734,-0.64 -0.27734,-1.472 0,-1.40799 0.72534,-2.34666 0.74666,-0.96 2.00533,-1.42933 1.27999,-0.49067 2.83733,-0.49067 1.57866,0 2.83732,0.49067 1.28,0.46933 2.00533,1.42933 0.74667,0.93867 0.74667,2.34666 0,0.832 -0.29867,1.472 -0.27733,0.64 -0.76799,1.088 -0.49067,0.448 -1.13067,0.72533 v 0.256 q 0.81067,0.27733 1.408,0.832 0.61866,0.55467 0.93866,1.32266 0.34134,0.74667 0.34134,1.70667 0,1.472 -0.768,2.53866 -0.74667,1.06667 -2.112,1.64267 -1.36533,0.57599 -3.19999,0.57599 z m 0,-2.49599 q 0.98133,0 1.68533,-0.29867 0.704,-0.29866 1.08799,-0.87466 0.384,-0.576 0.384,-1.38667 0,-0.81066 -0.384,-1.36533 -0.36266,-0.576 -1.08799,-0.87466 -0.704,-0.29867 -1.68533,-0.29867 -0.96,0 -1.664,0.29867 -0.704,0.29866 -1.088,0.87466 -0.384,0.55467 -0.384,1.36533 0,0.81067 0.384,1.38667 0.384,0.576 1.088,0.87466 0.704,0.29867 1.664,0.29867 z m 0,-7.35999 q 1.23733,0 1.94133,-0.512 0.72533,-0.53333 0.72533,-1.536 0,-1.04533 -0.72533,-1.53599 -0.72534,-0.49067 -1.94133,-0.49067 -1.216,0 -1.94133,0.512 -0.704,0.49066 -0.704,1.51466 0,1.00267 0.72533,1.536 0.72533,0.512 1.92,0.512 z m 10.60264,13.31198 q 1.04533,-1.30133 1.83466,-2.816 0.78933,-1.51466 1.216,-3.34932 0.42666,-1.856 0.42666,-4.16 0,-2.32533 -0.448,-4.13866 -0.44799,-1.83466 -1.25866,-3.28533 -0.81067,-1.47199 -1.83466,-2.68799 h -3.30667 q 1.152,1.408 2.048,2.94399 0.896,1.536 1.38667,3.30666 0.49066,1.77067 0.49066,3.86133 0,2.06933 -0.42666,3.86133 -0.40534,1.792 -1.28,3.39199 -0.87467,1.6 -2.21867,3.072 z m 16.14928,-19.90397 q 1.72799,0 2.92266,0.59733 1.216,0.576 1.96266,1.6 0.74667,1.024 1.088,2.38933 0.34133,1.344 0.34133,2.85866 v 0.93867 q 0,3.81866 -1.94133,5.80265 -1.91999,1.96267 -5.65332,1.96267 -0.81067,0 -1.51467,-0.0427 -0.70399,-0.0427 -1.40799,-0.128 v -2.53866 q 0.704,0.0853 1.42933,0.128 0.74666,0.0427 1.6,0.0427 1.79199,0 2.81599,-0.61867 1.024,-0.61867 1.45067,-1.81333 0.44799,-1.19467 0.44799,-2.96533 v -1.38666 l 0.68267,-0.98134 q -0.0213,1.64267 -0.66133,2.73067 -0.61867,1.06666 -1.728,1.62133 -1.10933,0.53333 -2.53866,0.53333 -1.664,0 -2.83733,-0.66133 -1.17333,-0.66133 -1.81333,-1.83467 -0.61867,-1.17333 -0.61867,-2.73066 0,-1.62133 0.72534,-2.85866 0.72533,-1.25867 2.04799,-1.94133 1.344,-0.704 3.2,-0.704 z m 0.064,2.53866 q -1.00267,0 -1.70667,0.384 -0.704,0.36267 -1.06666,1.024 -0.36267,0.66133 -0.36267,1.51466 0,0.87467 0.34133,1.536 0.36267,0.66133 1.04534,1.024 0.68266,0.36267 1.64266,0.36267 0.91733,0 1.664,-0.32 0.768,-0.34134 1.19466,-0.98133 0.448,-0.66134 0.448,-1.62134 0,-0.83199 -0.36266,-1.49333 -0.34134,-0.66133 -1.06667,-1.04533 -0.704,-0.384 -1.77066,-0.384 z m 14.52796,13.90931 q -1.79199,0 -3.15733,-0.57599 -1.36533,-0.576 -2.13333,-1.64267 -0.76799,-1.06666 -0.76799,-2.53866 0,-0.98133 0.34133,-1.728 0.34133,-0.768 0.93866,-1.30133 0.59734,-0.55467 1.408,-0.832 v -0.256 q -0.61866,-0.27733 -1.13066,-0.72533 -0.49067,-0.448 -0.78934,-1.088 -0.27733,-0.64 -0.27733,-1.472 0,-1.40799 0.72533,-2.34666 0.74667,-0.96 2.00533,-1.42933 1.28,-0.49067 2.83733,-0.49067 1.57867,0 2.83733,0.49067 1.28,0.46933 2.00533,1.42933 0.74667,0.93867 0.74667,2.34666 0,0.832 -0.29867,1.472 -0.27733,0.64 -0.768,1.088 -0.49066,0.448 -1.13066,0.72533 v 0.256 q 0.81066,0.27733 1.408,0.832 0.61866,0.55467 0.93866,1.32266 0.34133,0.74667 0.34133,1.70667 0,1.472 -0.768,2.53866 -0.74666,1.06667 -2.11199,1.64267 -1.36533,0.57599 -3.2,0.57599 z m 0,-2.49599 q 0.98133,0 1.68533,-0.29867 0.704,-0.29866 1.088,-0.87466 0.384,-0.576 0.384,-1.38667 0,-0.81066 -0.384,-1.36533 -0.36266,-0.576 -1.088,-0.87466 -0.704,-0.29867 -1.68533,-0.29867 -0.96,0 -1.66399,0.29867 -0.704,0.29866 -1.088,0.87466 -0.384,0.55467 -0.384,1.36533 0,0.81067 0.384,1.38667 0.384,0.576 1.088,0.87466 0.70399,0.29867 1.66399,0.29867 z m 0,-7.35999 q 1.23733,0 1.94133,-0.512 0.72534,-0.53333 0.72534,-1.536 0,-1.04533 -0.72534,-1.53599 -0.72533,-0.49067 -1.94133,-0.49067 -1.216,0 -1.94133,0.512 -0.704,0.49066 -0.704,1.51466 0,1.00267 0.72534,1.536 0.72533,0.512 1.91999,0.512 z m 14.01598,9.85598 q -1.792,0 -3.15733,-0.57599 -1.36533,-0.576 -2.13333,-1.64267 -0.768,-1.06666 -0.768,-2.53866 0,-0.98133 0.34133,-1.728 0.34133,-0.768 0.93867,-1.30133 0.59733,-0.55467 1.40799,-0.832 v -0.256 q -0.61866,-0.27733 -1.13066,-0.72533 -0.49067,-0.448 -0.78933,-1.088 -0.27734,-0.64 -0.27734,-1.472 0,-1.40799 0.72534,-2.34666 0.74666,-0.96 2.00533,-1.42933 1.27999,-0.49067 2.83733,-0.49067 1.57866,0 2.83732,0.49067 1.28,0.46933 2.00533,1.42933 0.74667,0.93867 0.74667,2.34666 0,0.832 -0.29867,1.472 -0.27733,0.64 -0.768,1.088 -0.49066,0.448 -1.13066,0.72533 v 0.256 q 0.81067,0.27733 1.408,0.832 0.61866,0.55467 0.93866,1.32266 0.34134,0.74667 0.34134,1.70667 0,1.472 -0.768,2.53866 -0.74667,1.06667 -2.112,1.64267 -1.36533,0.57599 -3.19999,0.57599 z m 0,-2.49599 q 0.98133,0 1.68533,-0.29867 0.70399,-0.29866 1.08799,-0.87466 0.384,-0.576 0.384,-1.38667 0,-0.81066 -0.384,-1.36533 -0.36266,-0.576 -1.08799,-0.87466 -0.704,-0.29867 -1.68533,-0.29867 -0.96,0 -1.664,0.29867 -0.704,0.29866 -1.088,0.87466 -0.384,0.55467 -0.384,1.36533 0,0.81067 0.384,1.38667 0.384,0.576 1.088,0.87466 0.704,0.29867 1.664,0.29867 z m 0,-7.35999 q 1.23733,0 1.94133,-0.512 0.72533,-0.53333 0.72533,-1.536 0,-1.04533 -0.72533,-1.53599 -0.72534,-0.49067 -1.94133,-0.49067 -1.216,0 -1.94134,0.512 -0.70399,0.49066 -0.70399,1.51466 0,1.00267 0.72533,1.536 0.72533,0.512 1.92,0.512 z m 14.6133,9.87732 q -1.728,0 -2.944,-0.576 -1.19466,-0.59733 -1.94133,-1.62133 -0.74667,-1.024 -1.088,-2.368 -0.34133,-1.36533 -0.34133,-2.87999 v -0.93867 q 0,-3.81866 1.92,-5.78132 1.94133,-1.984 5.67465,-1.984 0.81067,0 1.51467,0.0427 0.704,0.0427 1.408,0.128 v 2.53866 q -0.704,-0.0853 -1.45067,-0.128 -0.72533,-0.0427 -1.57866,-0.0427 -1.792,0 -2.816,0.61867 -1.024,0.61866 -1.472,1.81333 -0.42666,1.19466 -0.42666,2.96533 v 1.38666 l -0.68267,0.98133 q 0.0213,-1.64266 0.64,-2.70933 0.64,-1.08799 1.74933,-1.62133 1.10933,-0.55466 2.53866,-0.55466 1.664,0 2.83733,0.66133 1.17334,0.66133 1.792,1.83466 0.64,1.17334 0.64,2.73067 0,1.62133 -0.72533,2.87999 -0.72533,1.23733 -2.06933,1.94133 -1.32267,0.68267 -3.17866,0.68267 z m -0.064,-2.53867 q 1.00266,0 1.70666,-0.36266 0.704,-0.384 1.06666,-1.04533 0.36267,-0.66134 0.36267,-1.51467 0,-0.87466 -0.36267,-1.53599 -0.34133,-0.66134 -1.02399,-1.024 -0.68267,-0.36267 -1.64267,-0.36267 -0.91733,0 -1.68533,0.34133 -0.74666,0.32 -1.19466,0.98134 -0.42667,0.63999 -0.42667,1.59999 0,0.832 0.34133,1.49333 0.36267,0.66134 1.06667,1.04534 0.72533,0.38399 1.792,0.38399 z m 14.52796,2.53867 q -1.728,0 -2.94399,-0.576 -1.19467,-0.59733 -1.94133,-1.62133 -0.74667,-1.024 -1.088,-2.368 -0.34133,-1.36533 -0.34133,-2.87999 v -0.93867 q 0,-3.81866 1.91999,-5.78132 1.94133,-1.984 5.67466,-1.984 0.81067,0 1.51466,0.0427 0.704,0.0427 1.408,0.128 v 2.53866 q -0.704,-0.0853 -1.45066,-0.128 -0.72533,-0.0427 -1.57867,-0.0427 -1.79199,0 -2.81599,0.61867 -1.024,0.61866 -1.472,1.81333 -0.42667,1.19466 -0.42667,2.96533 v 1.38666 l -0.68266,0.98133 q 0.0213,-1.64266 0.64,-2.70933 0.64,-1.08799 1.74933,-1.62133 1.10933,-0.55466 2.53866,-0.55466 1.664,0 2.83733,0.66133 1.17333,0.66133 1.792,1.83466 0.64,1.17334 0.64,2.73067 0,1.62133 -0.72534,2.87999 -0.72533,1.23733 -2.06933,1.94133 -1.32266,0.68267 -3.17866,0.68267 z m -0.064,-2.53867 q 1.00267,0 1.70667,-0.36266 0.704,-0.384 1.06666,-1.04533 0.36267,-0.66134 0.36267,-1.51467 0,-0.87466 -0.36267,-1.53599 -0.34133,-0.66134 -1.024,-1.024 -0.68266,-0.36267 -1.64266,-0.36267 -0.91733,0 -1.68533,0.34133 -0.74667,0.32 -1.19467,0.98134 -0.42666,0.63999 -0.42666,1.59999 0,0.832 0.34133,1.49333 0.36267,0.66134 1.06667,1.04534 0.72533,0.38399 1.79199,0.38399 z m 8.02131,-2.60266 v -2.60266 h 8.63999 v 2.60266 z m 16.72531,5.11999 q -1.792,0 -3.15733,-0.57599 -1.36533,-0.576 -2.13333,-1.64267 -0.768,-1.06666 -0.768,-2.53866 0,-0.98133 0.34133,-1.728 0.34133,-0.768 0.93867,-1.30133 0.59733,-0.55467 1.40799,-0.832 v -0.256 q -0.61866,-0.27733 -1.13066,-0.72533 -0.49067,-0.448 -0.78933,-1.088 -0.27734,-0.64 -0.27734,-1.472 0,-1.40799 0.72534,-2.34666 0.74666,-0.96 2.00533,-1.42933 1.27999,-0.49067 2.83733,-0.49067 1.57866,0 2.83732,0.49067 1.28,0.46933 2.00533,1.42933 0.74667,0.93867 0.74667,2.34666 0,0.832 -0.29867,1.472 -0.27733,0.64 -0.768,1.088 -0.49066,0.448 -1.13066,0.72533 v 0.256 q 0.81067,0.27733 1.408,0.832 0.61866,0.55467 0.93866,1.32266 0.34134,0.74667 0.34134,1.70667 0,1.472 -0.768,2.53866 -0.74667,1.06667 -2.112,1.64267 -1.36533,0.57599 -3.19999,0.57599 z m 0,-2.49599 q 0.98133,0 1.68533,-0.29867 0.70399,-0.29866 1.08799,-0.87466 0.384,-0.576 0.384,-1.38667 0,-0.81066 -0.384,-1.36533 -0.36266,-0.576 -1.08799,-0.87466 -0.704,-0.29867 -1.68533,-0.29867 -0.96,0 -1.664,0.29867 -0.704,0.29866 -1.088,0.87466 -0.384,0.55467 -0.384,1.36533 0,0.81067 0.384,1.38667 0.384,0.576 1.088,0.87466 0.704,0.29867 1.664,0.29867 z m 0,-7.35999 q 1.23733,0 1.94133,-0.512 0.72533,-0.53333 0.72533,-1.536 0,-1.04533 -0.72533,-1.53599 -0.72534,-0.49067 -1.94133,-0.49067 -1.216,0 -1.94134,0.512 -0.70399,0.49066 -0.70399,1.51466 0,1.00267 0.72533,1.536 0.72533,0.512 1.92,0.512 z m 10.96531,9.42932 v -13.69598 l 0.93866,0.72533 h -4.11732 v -2.60266 h 6.18665 v 15.57331 z m 11.64796,0.40533 q -1.79199,0 -3.09332,-0.68266 -1.28,-0.68267 -1.96267,-1.81334 -0.68266,-1.15199 -0.68266,-2.55999 h 2.92266 q 0,1.13066 0.74666,1.83466 0.768,0.68267 2.06933,0.68267 0.87467,0 1.49333,-0.32 0.64,-0.34133 0.98134,-0.91733 0.34133,-0.59734 0.34133,-1.36533 0,-1.152 -0.74667,-1.87733 -0.74666,-0.74667 -2.04799,-0.74667 -0.64,0 -1.13067,0.17067 -0.46933,0.17066 -0.832,0.448 l -1.38666,-2.38933 5.11999,-3.49867 -0.192,-0.36266 h -6.69865 v -2.58133 h 10.17598 v 3.11466 l -5.26933,3.49866 -1.64266,-0.29866 q 0.40533,-0.128 0.87467,-0.192 0.46933,-0.0853 1.02399,-0.0853 1.77067,0 3.02933,0.61867 1.28,0.59733 1.96267,1.664 0.68266,1.06666 0.68266,2.45333 v 0.27733 q 0,1.344 -0.68266,2.47466 -0.68267,1.10933 -1.96267,1.792 -1.28,0.66133 -3.09333,0.66133 z m 14.91196,0 q -1.83466,0 -3.11466,-0.59733 -1.28,-0.61867 -2.09066,-1.664 -0.81067,-1.06666 -1.19467,-2.432 -0.36266,-1.38666 -0.36266,-2.90132 v -1.19467 q 0,-2.15466 0.72533,-3.88266 0.72533,-1.728 2.21866,-2.73066 1.49333,-1.024 3.81866,-1.024 2.304,0 3.79733,1.024 1.49333,1.00266 2.19733,2.73066 0.72533,1.728 0.72533,3.88266 v 1.19467 q 0,1.51466 -0.384,2.90132 -0.36266,1.36534 -1.17333,2.432 -0.78933,1.04533 -2.06933,1.664 -1.28,0.59733 -3.09333,0.59733 z m 0,-2.77333 q 1.89867,0 2.79467,-1.30133 0.89599,-1.32266 0.89599,-4.09599 0,-2.944 -0.91733,-4.20266 -0.91733,-1.28 -2.77333,-1.28 -1.87733,0 -2.81599,1.28 -0.91733,1.25866 -0.91733,4.15999 0,2.79466 0.91733,4.11733 0.91733,1.32266 2.81599,1.32266 z"
     id="text76"
     transform="translate(-2.2814308,-123.76223)"
     aria-label="(48) 98866-8130" />
  <path
     d="m 210.6249,164.64762 -6.21334,-19.46669 h 3.92001 l 5.14667,16.85335 -1.12,-0.53333 h 2.88 l -1.14666,0.53333 4.74667,-16.85335 h 3.78667 l -5.76001,19.46669 z m 15.04001,0 V 150.1676 h 3.70667 v 14.48002 z m -2.02667,-11.70668 v -2.77334 h 5.73334 v 2.77334 z m 3.38667,-4.50667 q -1.09334,0 -1.62667,-0.56 -0.50667,-0.58667 -0.50667,-1.44001 0,-0.90666 0.50667,-1.46666 0.53333,-0.56001 1.62667,-0.56001 1.09333,0 1.6,0.56001 0.50667,0.56 0.50667,1.46666 0,0.85334 -0.50667,1.44001 -0.50667,0.56 -1.6,0.56 z m 12.9067,16.40002 q -2,0 -3.30667,-0.50667 -1.28,-0.53333 -1.92,-1.76 -0.64,-1.25334 -0.64,-3.36001 l 0.0267,-13.12001 h 3.46668 l -0.0267,13.36001 q 0,1.06667 0.56,1.65334 0.58667,0.56 1.65333,0.56 h 2.26667 v 3.17334 z m -8.16001,-11.94668 v -2.72001 h 10.24001 v 2.72001 z m 20.24001,12.26668 q -1.92,0 -3.38667,-0.61334 -1.46667,-0.61333 -2.48,-1.65333 -1.01334,-1.06667 -1.54667,-2.4 -0.50667,-1.33334 -0.50667,-2.77334 v -0.56 q 0,-1.49334 0.53334,-2.82667 0.56,-1.36 1.57333,-2.40001 1.04,-1.06666 2.50667,-1.65333 1.46667,-0.61334 3.30667,-0.61334 1.84001,0 3.30667,0.61334 1.46667,0.58667 2.48001,1.65333 1.04,1.04001 1.57333,2.40001 0.53334,1.33333 0.53334,2.82667 v 0.56 q 0,1.44 -0.53334,2.77334 -0.50667,1.33333 -1.52,2.4 -1.01333,1.04 -2.48,1.65333 -1.46667,0.61334 -3.36001,0.61334 z m 0,-3.17334 q 1.36,0 2.29334,-0.58667 0.93333,-0.61333 1.41333,-1.62667 0.48,-1.04 0.48,-2.34667 0,-1.33333 -0.50666,-2.34667 -0.48,-1.04 -1.44,-1.62666 -0.93334,-0.61334 -2.24001,-0.61334 -1.30667,0 -2.26667,0.61334 -0.93333,0.58666 -1.44,1.62666 -0.50667,1.01334 -0.50667,2.34667 0,1.30667 0.48,2.34667 0.50667,1.01334 1.44001,1.62667 0.93333,0.58667 2.29333,0.58667 z m 11.14671,2.66667 V 150.1676 h 2.93333 v 6.13334 h -0.08 q 0,-3.12 1.33334,-4.72 1.33333,-1.6 3.92,-1.6 h 0.53334 v 3.22667 h -1.01334 q -1.86667,0 -2.90667,1.01333 -1.01333,0.98667 -1.01333,2.88 v 7.54668 z m 17.17334,0 v -19.46669 h 5.17334 l 4.88,11.62668 h 0.48001 l 4.85334,-11.62668 h 5.25333 v 19.46669 h -3.76 v -16.61335 l 0.48,0.0533 -5.25334,12.58668 h -3.86667 l -5.28001,-12.58668 0.50667,-0.0533 v 16.61335 z m 33.92005,0 v -4.29334 h -0.61333 v -4.77334 q 0,-1.25333 -0.61334,-1.86667 -0.61333,-0.61333 -1.89333,-0.61333 -0.66667,0 -1.60001,0.0267 -0.93333,0.0267 -1.89333,0.08 -0.93334,0.0267 -1.68,0.08 v -3.14667 q 0.61333,-0.0533 1.38666,-0.10667 0.77334,-0.0533 1.57334,-0.0533 0.82667,-0.0267 1.54667,-0.0267 2.24,0 3.70667,0.58667 1.49334,0.58666 2.24,1.84 0.77334,1.25333 0.77334,3.28 v 8.98668 z m -4.66667,0.37333 q -1.57334,0 -2.77334,-0.56 -1.17333,-0.56 -1.84,-1.6 -0.64,-1.04 -0.64,-2.50667 0,-1.6 0.77333,-2.61334 0.8,-1.01333 2.21334,-1.52 1.44,-0.50666 3.36,-0.50666 h 3.36001 v 2.21333 h -3.41334 q -1.28,0 -1.97334,0.64 -0.66666,0.61334 -0.66666,1.6 0,0.98667 0.66666,1.60001 0.69334,0.61333 1.97334,0.61333 0.77333,0 1.41333,-0.26667 0.66667,-0.29333 1.09334,-0.96 0.45333,-0.69333 0.50667,-1.86667 l 0.90666,1.04 q -0.13333,1.52001 -0.74666,2.56001 -0.58667,1.04 -1.65334,1.6 -1.04,0.53333 -2.56,0.53333 z m 18,0.13334 q -1.89333,0 -3.28,-0.64 -1.36,-0.64 -2.29334,-1.70667 -0.90667,-1.06667 -1.36,-2.40001 -0.45334,-1.33333 -0.45334,-2.72 v -0.50667 q 0,-1.46666 0.45334,-2.8 0.48,-1.36 1.41333,-2.4 0.93334,-1.06667 2.29334,-1.68 1.38667,-0.64001 3.2,-0.64001 1.89334,0 3.38668,0.74667 1.49333,0.72 2.37333,2.02667 0.90667,1.30667 1.01334,3.04001 h -3.60001 q -0.13333,-1.12001 -0.96,-1.86667 -0.8,-0.74667 -2.21334,-0.74667 -1.22666,0 -2.05333,0.58667 -0.8,0.58666 -1.2,1.62666 -0.4,1.01334 -0.4,2.34667 0,1.28001 0.37333,2.32001 0.4,1.04 1.2,1.62667 0.82667,0.58666 2.10667,0.58666 0.96,0 1.65334,-0.34666 0.69333,-0.34667 1.09333,-0.96 0.42667,-0.61334 0.53334,-1.38667 h 3.6 q -0.10667,1.76 -1.04,3.09333 -0.90667,1.30667 -2.42667,2.05334 -1.49334,0.74667 -3.41334,0.74667 z m 16.32004,0 q -1.86667,0 -3.28,-0.64 -1.38667,-0.64 -2.32,-1.70667 -0.90667,-1.09334 -1.38667,-2.42667 -0.45334,-1.33334 -0.45334,-2.72001 v -0.50666 q 0,-1.44 0.45334,-2.77334 0.48,-1.36 1.38667,-2.4 0.93333,-1.06667 2.29333,-1.68 1.36,-0.64001 3.14667,-0.64001 2.34667,0 3.92001,1.04001 1.6,1.01333 2.4,2.69333 0.8,1.65334 0.8,3.57334 v 1.33334 h -12.82668 v -2.26667 h 10.50668 l -1.14667,1.12 q 0,-1.38667 -0.4,-2.37334 -0.4,-0.98667 -1.22667,-1.52 -0.8,-0.53333 -2.02667,-0.53333 -1.22667,0 -2.08,0.56 -0.85333,0.56 -1.30667,1.62666 -0.42667,1.04001 -0.42667,2.50667 0,1.36001 0.42667,2.42667 0.42667,1.04001 1.30667,1.65334 0.88,0.58667 2.24,0.58667 1.36,0 2.21334,-0.53334 0.85333,-0.56 1.09333,-1.36 h 3.41334 q -0.32,1.49334 -1.22667,2.61334 -0.90666,1.12 -2.32,1.73333 -1.38667,0.61334 -3.17334,0.61334 z m 16.05337,-0.0267 q -1.52,0 -2.8,-0.56 -1.28,-0.56 -2.21334,-1.57334 -0.93333,-1.01333 -1.44,-2.34666 -0.50667,-1.36001 -0.50667,-2.93334 v -0.56 q 0,-1.54667 0.48,-2.90667 0.50667,-1.36 1.38667,-2.37334 0.90667,-1.01333 2.16001,-1.57333 1.28,-0.58667 2.82667,-0.58667 1.70667,0 2.98667,0.74667 1.30666,0.72 2.08,2.18667 0.77333,1.46666 0.85333,3.68 l -1.09333,-1.28 v -9.86668 h 3.70667 v 19.46669 h -2.93334 v -6.16001 h 0.64 q -0.08,2.21334 -0.90666,3.70667 -0.82667,1.46667 -2.18667,2.21334 -1.33334,0.72 -3.04001,0.72 z m 0.82667,-3.12 q 1.09334,0 2,-0.48 0.90667,-0.50667 1.44001,-1.44001 0.56,-0.96 0.56,-2.24 v -1.06667 q 0,-1.28 -0.56,-2.13333 -0.56001,-0.88 -1.46667,-1.33334 -0.90667,-0.48 -1.97334,-0.48 -1.2,0 -2.13334,0.58667 -0.90666,0.56 -1.44,1.6 -0.50666,1.04 -0.50666,2.42667 0,1.38667 0.53333,2.42667 0.53333,1.01334 1.44,1.57334 0.93334,0.56 2.10667,0.56 z m 18.77335,3.14667 q -1.92,0 -3.38667,-0.61334 -1.46667,-0.61333 -2.48001,-1.65333 -1.01333,-1.06667 -1.54666,-2.4 -0.50667,-1.33334 -0.50667,-2.77334 v -0.56 q 0,-1.49334 0.53333,-2.82667 0.56,-1.36 1.57334,-2.40001 1.04,-1.06666 2.50667,-1.65333 1.46667,-0.61334 3.30667,-0.61334 1.84,0 3.30667,0.61334 1.46667,0.58667 2.48,1.65333 1.04,1.04001 1.57334,2.40001 0.53333,1.33333 0.53333,2.82667 v 0.56 q 0,1.44 -0.53333,2.77334 -0.50667,1.33333 -1.52,2.4 -1.01334,1.04 -2.48001,1.65333 -1.46667,0.61334 -3.36,0.61334 z m 0,-3.17334 q 1.36,0 2.29334,-0.58667 0.93333,-0.61333 1.41333,-1.62667 0.48,-1.04 0.48,-2.34667 0,-1.33333 -0.50667,-2.34667 -0.48,-1.04 -1.44,-1.62666 -0.93333,-0.61334 -2.24,-0.61334 -1.30667,0 -2.26667,0.61334 -0.93334,0.58666 -1.44,1.62666 -0.50667,1.01334 -0.50667,2.34667 0,1.30667 0.48,2.34667 0.50667,1.01334 1.44,1.62667 0.93334,0.58667 2.29334,0.58667 z"
     id="text77"
     style="-inkscape-font-specification:'Sora Semi-Bold';fill:#000144"
     transform="translate(-10.192531,-104.47343)"
     aria-label="Vitor Macedo" />
  <path
     style="-inkscape-font-specification:Sora;fill:#ede9e0"
     d="m 614.97495,222.93543 q -1.87199,0 -3.46666,-0.62399 -1.57733,-0.60667 -2.73866,-1.75067 -1.16133,-1.12666 -1.80266,-2.68666 -0.64133,-1.57733 -0.64133,-3.48399 0,-1.83733 0.624,-3.41466 0.624,-1.57733 1.76799,-2.756 1.16133,-1.17866 2.77333,-1.83733 1.612,-0.65866 3.57066,-0.65866 1.716,0 3.24133,0.50266 1.52533,0.48534 2.70399,1.456 1.17867,0.95333 1.83733,2.37466 0.676,1.404 0.676,3.25866 0,1.52533 -0.468,2.72133 -0.468,1.196 -1.29999,1.88933 -0.81467,0.69333 -1.90667,0.69333 -0.81466,0 -1.404,-0.34666 -0.58933,-0.34667 -0.91866,-0.95333 -0.312,-0.624 -0.312,-1.42134 v -1.07466 h 0.50267 q -0.052,1.23066 -0.53734,2.04533 -0.468,0.81466 -1.23066,1.21333 -0.74533,0.39867 -1.62933,0.39867 -1.05733,0 -1.90666,-0.52 -0.832,-0.53733 -1.31733,-1.43867 -0.48534,-0.90133 -0.48534,-2.04533 v -0.27733 q 0,-1.144 0.50267,-2.02799 0.50266,-0.884 1.352,-1.38667 0.86666,-0.50266 1.92399,-0.50266 0.95333,0 1.716,0.41599 0.76266,0.416 1.23066,1.196 0.48534,0.78 0.53734,1.90667 h -0.624 v -3.276 h 1.35199 v 5.33866 q 0,0.48533 0.156,0.79733 0.17334,0.312 0.45067,0.468 0.27733,0.13867 0.60667,0.13867 0.58933,0 1.09199,-0.468 0.50267,-0.48534 0.81467,-1.352 0.312,-0.86667 0.312,-2.06266 0,-1.57733 -0.55467,-2.756 -0.53733,-1.17866 -1.50799,-1.95866 -0.97067,-0.78 -2.236,-1.16133 -1.248,-0.39867 -2.652,-0.39867 -1.66399,0 -3.01599,0.55467 -1.33466,0.55466 -2.28799,1.55999 -0.95334,0.988 -1.456,2.32267 -0.50267,1.31733 -0.50267,2.85999 0,2.11466 0.90133,3.72666 0.90134,1.59466 2.51333,2.47866 1.62933,0.90133 3.74399,0.90133 0.55467,0 1.07467,-0.0693 0.52,-0.052 1.00533,-0.17333 v 1.43866 q -0.48533,0.104 -1.00533,0.156 -0.52,0.0693 -1.07467,0.0693 z m -0.36399,-5.77198 q 0.67599,0 1.24799,-0.312 0.58934,-0.312 0.936,-0.91867 0.34667,-0.60666 0.34667,-1.47333 v -0.45067 q 0,-0.81466 -0.364,-1.33466 -0.364,-0.53733 -0.936,-0.79733 -0.572,-0.27733 -1.23066,-0.27733 -0.74534,0 -1.31734,0.34666 -0.55466,0.32934 -0.86666,0.95333 -0.29467,0.60667 -0.29467,1.43867 0,0.832 0.312,1.47333 0.312,0.64133 0.86667,1.00533 0.55466,0.34667 1.3,0.34667 z m 15.47863,1.87199 q -0.988,0 -1.82,-0.364 -0.832,-0.364 -1.456,-1.02266 -0.60666,-0.65867 -0.95333,-1.52533 -0.32933,-0.86667 -0.32933,-1.872 v -0.312 q 0,-0.988 0.32933,-1.85466 0.32934,-0.86667 0.91867,-1.52533 0.60666,-0.65867 1.42133,-1.02267 0.832,-0.38133 1.83733,-0.38133 1.05733,0 1.92399,0.45067 0.86667,0.43333 1.42133,1.36933 0.55467,0.936 0.624,2.42666 l -0.69333,-1.10933 v -6.22266 h 1.664 v 12.65331 h -1.31733 v -4.10799 h 0.48533 q -0.0693,1.57733 -0.65867,2.56533 -0.58933,0.97066 -1.49066,1.42133 -0.884,0.43333 -1.90666,0.43333 z m 0.22533,-1.456 q 0.84933,0 1.54266,-0.38133 0.69334,-0.38133 1.10934,-1.092 0.41599,-0.72799 0.41599,-1.69866 v -0.79733 q 0,-0.95333 -0.43333,-1.612 -0.416,-0.676 -1.12666,-1.02266 -0.69333,-0.364 -1.52533,-0.364 -0.91867,0 -1.62933,0.43333 -0.69333,0.43333 -1.092,1.21333 -0.38133,0.78 -0.38133,1.83733 0,1.05733 0.39866,1.85466 0.39867,0.78 1.10933,1.21334 0.71067,0.41599 1.612,0.41599 z m 12.11596,1.456 q -1.21333,0 -2.13199,-0.416 -0.91867,-0.416 -1.56,-1.092 -0.624,-0.69333 -0.95333,-1.54266 -0.312,-0.84933 -0.312,-1.73333 v -0.312 q 0,-0.884 0.32933,-1.73333 0.32933,-0.86666 0.97067,-1.54266 0.64133,-0.69333 1.55999,-1.092 0.91867,-0.416 2.09733,-0.416 1.17867,0 2.09733,0.416 0.91867,0.39867 1.56,1.092 0.64133,0.676 0.97066,1.54266 0.32934,0.84933 0.32934,1.73333 v 0.312 q 0,0.884 -0.32934,1.73333 -0.312,0.84933 -0.95333,1.54266 -0.624,0.676 -1.54266,1.092 -0.91867,0.416 -2.132,0.416 z m 0,-1.49066 q 1.04,0 1.768,-0.45067 0.74533,-0.468 1.12666,-1.248 0.39867,-0.77999 0.39867,-1.75066 0,-0.988 -0.39867,-1.768 -0.39866,-0.77999 -1.14399,-1.23066 -0.728,-0.45067 -1.75067,-0.45067 -1.00533,0 -1.75066,0.45067 -0.74533,0.45067 -1.144,1.23066 -0.39866,0.78 -0.39866,1.768 0,0.97067 0.38133,1.75066 0.39866,0.78 1.12666,1.248 0.74533,0.45067 1.78533,0.45067 z m 7.45333,1.17866 v -9.25598 h 1.31733 v 3.96933 h -0.208 q 0,-1.352 0.34667,-2.288 0.364,-0.95333 1.07466,-1.456 0.71067,-0.50266 1.80267,-0.50266 h 0.0693 q 1.092,0 1.80266,0.50266 0.728,0.50267 1.07467,1.456 0.34666,0.936 0.34666,2.288 h -0.48533 q 0,-1.352 0.364,-2.288 0.364,-0.95333 1.07466,-1.456 0.728,-0.50266 1.82,-0.50266 h 0.0693 q 1.092,0 1.82,0.50266 0.728,0.50267 1.07466,1.456 0.364,0.936 0.364,2.288 v 5.28665 h -1.66399 v -5.65065 q 0,-1.12667 -0.55467,-1.73333 -0.55466,-0.624 -1.54266,-0.624 -1.02267,0 -1.64667,0.65866 -0.62399,0.64134 -0.62399,1.80267 v 5.54665 h -1.664 v -5.65065 q 0,-1.12667 -0.55467,-1.73333 -0.55466,-0.624 -1.54266,-0.624 -1.02267,0 -1.64666,0.65866 -0.624,0.64134 -0.624,1.80267 v 5.54665 z m 17.22931,0 v -9.25598 h 1.66399 v 9.25598 z m -1.42133,-7.93865 v -1.31733 h 3.08532 v 1.31733 z m 1.88933,-2.80799 q -0.55467,0 -0.832,-0.29467 -0.26,-0.29467 -0.26,-0.74533 0,-0.45067 0.26,-0.74533 0.27733,-0.29467 0.832,-0.29467 0.55466,0 0.81466,0.29467 0.27733,0.29466 0.27733,0.74533 0,0.45066 -0.27733,0.74533 -0.26,0.29467 -0.81466,0.29467 z m 4.42,10.74664 v -9.25598 h 1.31733 v 3.96933 h -0.208 q 0,-1.36933 0.364,-2.30533 0.38133,-0.95333 1.14399,-1.43867 0.76267,-0.50266 1.924,-0.50266 h 0.0693 q 1.75067,0 2.58267,1.092 0.84933,1.09199 0.84933,3.15466 v 5.28665 h -1.664 v -5.63332 q 0,-1.07466 -0.60666,-1.716 -0.60667,-0.65866 -1.664,-0.65866 -1.092,0 -1.768,0.676 -0.676,0.676 -0.676,1.80266 v 5.52932 z m 16.69195,0 v -2.77333 h -0.27733 v -3.20666 q 0,-0.95333 -0.50267,-1.43866 -0.48533,-0.48533 -1.43866,-0.48533 -0.53733,0 -1.10933,0.0173 -0.572,0.0173 -1.092,0.0347 -0.52,0.0173 -0.90133,0.052 v -1.456 q 0.38133,-0.0347 0.79733,-0.052 0.43333,-0.0347 0.884,-0.0347 0.45066,-0.0173 0.86666,-0.0173 1.42133,0 2.32267,0.34667 0.90133,0.32933 1.33466,1.09199 0.43333,0.76267 0.43333,2.06267 v 5.85865 z m -3.03333,0.24267 q -1.03999,0 -1.80266,-0.34667 -0.74533,-0.364 -1.16133,-1.04 -0.39867,-0.67599 -0.39867,-1.62933 0,-0.98799 0.43334,-1.64666 0.45066,-0.65866 1.29999,-0.988 0.84934,-0.34666 2.04533,-0.34666 h 2.51333 v 1.24799 h -2.58266 q -1.00533,0 -1.54266,0.48534 -0.53734,0.48533 -0.53734,1.24799 0,0.76267 0.53734,1.23067 0.53733,0.468 1.54266,0.468 0.58933,0 1.12666,-0.208 0.53734,-0.22533 0.884,-0.728 0.364,-0.52 0.39867,-1.42133 l 0.45066,0.65866 q -0.0867,0.988 -0.48533,1.664 -0.38133,0.65867 -1.07466,1.00533 -0.676,0.34667 -1.64667,0.34667 z m 7.072,-0.24267 v -2.11466 h 2.01067 v 2.11466 z m 8.49331,0.312 q -0.988,0 -1.82,-0.364 -0.832,-0.364 -1.456,-1.02266 -0.60666,-0.65867 -0.95333,-1.52533 -0.32933,-0.86667 -0.32933,-1.872 v -0.312 q 0,-0.988 0.32933,-1.85466 0.32933,-0.86667 0.91867,-1.52533 0.60666,-0.65867 1.42133,-1.02267 0.832,-0.38133 1.83733,-0.38133 1.05733,0 1.92399,0.45067 0.86667,0.43333 1.42133,1.36933 0.55467,0.936 0.624,2.42666 l -0.69333,-1.10933 v -6.22266 h 1.664 v 12.65331 h -1.31733 v -4.10799 h 0.48533 q -0.0693,1.57733 -0.65867,2.56533 -0.58933,0.97066 -1.49066,1.42133 -0.884,0.43333 -1.90666,0.43333 z m 0.22533,-1.456 q 0.84933,0 1.54266,-0.38133 0.69334,-0.38133 1.10933,-1.092 0.416,-0.72799 0.416,-1.69866 v -0.79733 q 0,-0.95333 -0.43333,-1.612 -0.416,-0.676 -1.12666,-1.02266 -0.69334,-0.364 -1.52533,-0.364 -0.91867,0 -1.62933,0.43333 -0.69334,0.43333 -1.092,1.21333 -0.38133,0.78 -0.38133,1.83733 0,1.05733 0.39866,1.85466 0.39867,0.78 1.10933,1.21334 0.71067,0.41599 1.612,0.41599 z m 11.78663,1.456 q -1.21333,0 -2.09732,-0.416 -0.884,-0.416 -1.43867,-1.092 -0.55466,-0.69333 -0.832,-1.54266 -0.26,-0.84933 -0.26,-1.73333 v -0.312 q 0,-0.90133 0.26,-1.75066 0.27734,-0.84933 0.832,-1.52533 0.55467,-0.69333 1.404,-1.092 0.86666,-0.416 2.02799,-0.416 1.508,0 2.47867,0.65867 0.98799,0.64133 1.45599,1.66399 0.48534,1.02267 0.48534,2.184 v 0.74533 h -8.21599 v -1.248 h 7.00265 l -0.38133,0.676 q 0,-0.988 -0.312,-1.69866 -0.312,-0.728 -0.936,-1.12667 -0.62399,-0.39866 -1.57733,-0.39866 -0.98799,0 -1.64666,0.45066 -0.64133,0.45067 -0.97066,1.23067 -0.312,0.78 -0.312,1.80266 0,0.988 0.312,1.78533 0.32933,0.78 1.00533,1.248 0.676,0.45066 1.71599,0.45066 1.092,0 1.768,-0.48533 0.69333,-0.48533 0.832,-1.12666 h 1.56 q -0.19067,0.95333 -0.76267,1.64666 -0.572,0.69333 -1.43866,1.05733 -0.86667,0.364 -1.95867,0.364 z m 8.57998,-0.312 -3.15466,-9.25598 h 1.73333 l 3.08533,9.25598 z m 0.416,0 v -1.31733 h 2.01067 v 1.31733 z m 0.79734,0 2.68666,-9.25598 h 1.62933 l -2.73866,9.25598 z m 9.46398,0.27734 q -1.82,0 -2.82533,-0.78 -0.988,-0.78 -1.02267,-2.132 h 1.56 q 0.0347,0.53733 0.53733,1.02267 0.52,0.46799 1.75067,0.46799 1.10933,0 1.69866,-0.43333 0.58933,-0.45066 0.58933,-1.092 0,-0.57199 -0.43333,-0.88399 -0.43333,-0.32934 -1.404,-0.43334 l -1.00533,-0.104 q -1.31733,-0.13866 -2.14933,-0.77999 -0.832,-0.65867 -0.832,-1.83733 0,-0.884 0.45067,-1.508 0.45066,-0.64133 1.248,-0.97067 0.79733,-0.34666 1.83733,-0.34666 1.55999,0 2.53066,0.69333 0.97066,0.69333 1.00533,2.06266 h -1.56 q -0.0173,-0.55466 -0.52,-0.936 -0.48533,-0.39866 -1.45599,-0.39866 -0.97067,0 -1.47333,0.39866 -0.50267,0.39867 -0.50267,1.00534 0,0.51999 0.34667,0.83199 0.36399,0.312 1.17866,0.39867 l 1.00533,0.104 q 1.49066,0.156 2.392,0.832 0.90133,0.65866 0.90133,1.87199 0,0.86667 -0.50267,1.54267 -0.48533,0.65866 -1.352,1.04 -0.86666,0.364 -1.99332,0.364 z"
     id="text79"
     transform="translate(-41.407154,-124.85849)"
     aria-label="@domina.devs" />
  <text
     xml:space="preserve"
     style="font-style:normal;font-variant:normal;font-weight:normal;font-stretch:normal;font-size:17.3333px;font-family:Sora;-inkscape-font-specification:Sora;text-align:start;writing-mode:lr-tb;direction:ltr;text-anchor:start;fill:#ede9e0;fill-opacity:1"
     x="733.86218"
     y="250.99106"
     id="text80"><tspan
       sodipodi:role="line"
       id="tspan80"
       x="733.86218"
       y="250.99106" /></text>
  <path
     d="m 5.1944531,199.19479 q -1.98,0 -3.4,-0.7 -1.41999998,-0.7 -2.31999997,-1.82 -0.88000003,-1.12 -1.30000003,-2.44 -0.42,-1.32 -0.42,-2.54 v -0.44 q 0,-1.36 0.42,-2.68 0.44,-1.32 1.34000003,-2.4 0.89999999,-1.08 2.27999997,-1.72 1.4,-0.66 3.3,-0.66 1.98,0 3.44,0.72 1.4799999,0.7 2.3599999,2 0.88,1.28 1.06,3 H 9.0944531 q -0.16,-1 -0.72,-1.68 -0.54,-0.7 -1.38,-1.04 -0.84,-0.36 -1.9,-0.36 -1.08,0 -1.92,0.38 -0.84,0.36 -1.4,1.04 -0.56,0.68 -0.85999997,1.6 -0.28,0.92 -0.28,2.04 0,1.08 0.28,2 0.29999997,0.92 0.87999997,1.62 0.58,0.68 1.42,1.06 0.86,0.38 1.98,0.38 1.64,0 2.76,-0.8 1.14,-0.82 1.38,-2.28 h 2.8599999 q -0.2,1.56 -1.06,2.86 -0.86,1.3 -2.3599999,2.08 -1.5,0.78 -3.58,0.78 z m 9.3999959,-0.38 v -14.6 h 2.78 v 14.6 z m 2.38,0 v -2.4 h 6.62 v 2.4 z m 0,-6.22 v -2.4 h 6.1 v 2.4 z m 0,-5.98 v -2.4 h 6.46 v 2.4 z m 16.260014,12.58 q -1.98,0 -3.44,-0.7 -1.44,-0.7 -2.4,-1.82 -0.94,-1.14 -1.42,-2.44 -0.46,-1.32 -0.46,-2.54 v -0.44 q 0,-1.34 0.48,-2.66 0.48,-1.34 1.44,-2.42 0.98,-1.08 2.42,-1.72 1.44,-0.66 3.38,-0.66 1.92,0 3.36,0.66 1.44,0.64 2.4,1.72 0.98,1.08 1.46,2.42 0.48,1.32 0.48,2.66 v 0.44 q 0,1.22 -0.48,2.54 -0.46,1.3 -1.42,2.44 -0.94,1.12 -2.4,1.82 -1.44,0.7 -3.4,0.7 z m 0,-2.64 q 1.12,0 2,-0.4 0.9,-0.4 1.52,-1.1 0.64,-0.72 0.96,-1.62 0.34,-0.92 0.34,-1.94 0,-1.1 -0.34,-2.02 -0.32,-0.92 -0.96,-1.6 -0.62,-0.68 -1.52,-1.06 -0.9,-0.38 -2,-0.38 -1.12,0 -2.02,0.38 -0.9,0.38 -1.54,1.06 -0.62,0.68 -0.96,1.6 -0.32,0.92 -0.32,2.02 0,1.02 0.32,1.94 0.34,0.9 0.96,1.62 0.64,0.7 1.54,1.1 0.9,0.4 2.02,0.4 z m 17.199987,2.34 v -2.64 h 3.02 q 1.14,0 2.02,-0.34 0.9,-0.36 1.52,-1 0.62,-0.64 0.94,-1.5 0.34,-0.88 0.34,-1.94 0,-1.1 -0.34,-1.96 -0.32,-0.88 -0.94,-1.5 -0.62,-0.62 -1.52,-0.94 -0.88,-0.32 -2.02,-0.32 h -3.02 v -2.64 h 2.84 q 1.98,0 3.46,0.58 1.48,0.58 2.46,1.6 0.98,1 1.46,2.3 0.5,1.28 0.5,2.66 v 0.44 q 0,1.32 -0.5,2.6 -0.48,1.28 -1.46,2.32 -0.98,1.04 -2.46,1.66 -1.48,0.62 -3.46,0.62 z m -2.44,0 v -14.78 h 2.84 v 14.78 z m 15.999997,-0.08 v -10.86 h 2.78 v 10.86 z m -1.52,-8.78 v -2.08 h 4.3 v 2.08 z m 2.54,-3.38 q -0.82,0 -1.22,-0.42 -0.38,-0.44 -0.38,-1.08 0,-0.68 0.38,-1.1 0.4,-0.42 1.22,-0.42 0.82,0 1.2,0.42 0.38,0.42 0.38,1.1 0,0.64 -0.38,1.08 -0.38,0.42 -1.2,0.42 z m 4.960016,12.16 v -10.86 h 2.2 v 4.6 h -0.06 q 0,-2.34 1,-3.54 1,-1.2 2.94,-1.2 h 0.4 v 2.42 h -0.76 q -1.4,0 -2.18,0.76 -0.76,0.74 -0.76,2.16 v 5.66 z m 13.120002,0.38 q -1.4,0 -2.46,-0.48 -1.04,-0.48 -1.74,-1.28 -0.68,-0.82 -1.04,-1.82 -0.34,-1 -0.34,-2.04 v -0.38 q 0,-1.08 0.34,-2.08 0.36,-1.02 1.04,-1.8 0.7,-0.8 1.72,-1.26 1.02,-0.48 2.36,-0.48 1.76,0 2.94,0.78 1.2,0.76 1.8,2.02 0.6,1.24 0.6,2.68 v 1 h -9.62 v -1.7 h 7.88 l -0.86,0.84 q 0,-1.04 -0.3,-1.78 -0.3,-0.74 -0.92,-1.14 -0.6,-0.4 -1.52,-0.4 -0.92,0 -1.56,0.42 -0.64,0.42 -0.98,1.22 -0.32,0.78 -0.32,1.88 0,1.02 0.32,1.82 0.32,0.78 0.98,1.24 0.66,0.44 1.68,0.44 1.02,0 1.66,-0.4 0.64,-0.42 0.82,-1.02 h 2.56 q -0.24,1.12 -0.92,1.96 -0.68,0.84 -1.74,1.3 -1.04,0.46 -2.38,0.46 z m 12.260017,-0.24 q -1.5,0 -2.48,-0.38 -0.96,-0.4 -1.44,-1.32 -0.48,-0.94 -0.48,-2.52 l 0.02,-9.84 h 2.6 l -0.02,10.02 q 0,0.8 0.42,1.24 0.44,0.42 1.24,0.42 h 1.7 v 2.38 z m -6.12,-8.96 v -2.04 h 7.68 v 2.04 z m 15.179988,9.2 q -1.44,0 -2.54,-0.46 -1.1,-0.46 -1.86,-1.24 -0.759999,-0.8 -1.159999,-1.8 -0.38,-1 -0.38,-2.08 v -0.42 q 0,-1.12 0.4,-2.12 0.42,-1.02 1.179999,-1.8 0.78,-0.8 1.88,-1.24 1.1,-0.46 2.48,-0.46 1.38,0 2.48,0.46 1.1,0.44 1.86,1.24 0.78,0.78 1.18,1.8 0.4,1 0.4,2.12 v 0.42 q 0,1.08 -0.4,2.08 -0.38,1 -1.14,1.8 -0.76,0.78 -1.86,1.24 -1.1,0.46 -2.52,0.46 z m 0,-2.38 q 1.02,0 1.72,-0.44 0.7,-0.46 1.06,-1.22 0.36,-0.78 0.36,-1.76 0,-1 -0.38,-1.76 -0.36,-0.78 -1.08,-1.22 -0.7,-0.46 -1.68,-0.46 -0.98,0 -1.7,0.46 -0.7,0.44 -1.08,1.22 -0.38,0.76 -0.38,1.76 0,0.98 0.36,1.76 0.38,0.76 1.08,1.22 0.7,0.44 1.72,0.44 z m 8.36002,2 v -10.86 h 2.2 v 4.6 h -0.06 q 0,-2.34 1,-3.54 1,-1.2 2.94,-1.2 h 0.4 v 2.42 h -0.76 q -1.4,0 -2.18,0.76 -0.76,0.74 -0.76,2.16 v 5.66 z m 12.87999,0 v -14.6 h 2.78 v 14.6 z m 2.38,0 v -2.4 h 6.62 v 2.4 z m 0,-6.22 v -2.4 h 6.1 v 2.4 z m 0,-5.98 v -2.4 h 6.46 v 2.4 z m 8.08001,12.2 3.54,-5.8 -0.06,0.46 -3.34,-5.52 h 3.02 l 2.18,3.82 h 0.3 l 2.06,-3.82 h 2.84 l -3.16,5.5 0.06,-0.4 3.74,5.76 h -3.02 l -2.58,-4.1 h -0.3 l -2.44,4.1 z m 17.58003,0.38 q -1.4,0 -2.46,-0.48 -1.04,-0.48 -1.74,-1.28 -0.68,-0.82 -1.04,-1.82 -0.34,-1 -0.34,-2.04 v -0.38 q 0,-1.08 0.34,-2.08 0.36,-1.02 1.04,-1.8 0.7,-0.8 1.72,-1.26 1.02,-0.48 2.36,-0.48 1.76,0 2.94,0.78 1.2,0.76 1.8,2.02 0.6,1.24 0.6,2.68 v 1 h -9.62 v -1.7 h 7.88 l -0.86,0.84 q 0,-1.04 -0.3,-1.78 -0.3,-0.74 -0.92,-1.14 -0.6,-0.4 -1.52,-0.4 -0.92,0 -1.56,0.42 -0.64,0.42 -0.98,1.22 -0.32,0.78 -0.32,1.88 0,1.02 0.32,1.82 0.32,0.78 0.98,1.24 0.66,0.44 1.68,0.44 1.02,0 1.66,-0.4 0.64,-0.42 0.82,-1.02 h 2.56 q -0.24,1.12 -0.92,1.96 -0.68,0.84 -1.74,1.3 -1.04,0.46 -2.38,0.46 z m 12.36002,0 q -1.42,0 -2.46,-0.48 -1.02,-0.48 -1.72,-1.28 -0.68,-0.8 -1.02,-1.8 -0.34,-1 -0.34,-2.04 v -0.38 q 0,-1.1 0.34,-2.1 0.36,-1.02 1.06,-1.8 0.7,-0.8 1.72,-1.26 1.04,-0.48 2.4,-0.48 1.42,0 2.54,0.56 1.12,0.54 1.78,1.52 0.68,0.98 0.76,2.28 h -2.7 q -0.1,-0.84 -0.72,-1.4 -0.6,-0.56 -1.66,-0.56 -0.92,0 -1.54,0.44 -0.6,0.44 -0.9,1.22 -0.3,0.76 -0.3,1.76 0,0.96 0.28,1.74 0.3,0.78 0.9,1.22 0.62,0.44 1.58,0.44 0.72,0 1.24,-0.26 0.52,-0.26 0.82,-0.72 0.32,-0.46 0.4,-1.04 h 2.7 q -0.08,1.32 -0.78,2.32 -0.68,0.98 -1.82,1.54 -1.12,0.56 -2.56,0.56 z m 11.08001,-0.04 q -1.88,0 -2.92,-1.24 -1.02,-1.24 -1.02,-3.68 v -6.3 h 2.78 v 6.54 q 0,1 0.56,1.6 0.56,0.58 1.52,0.58 0.96,0 1.56,-0.62 0.62,-0.62 0.62,-1.68 v -6.42 h 2.78 v 10.88 h -2.2 v -4.62 h 0.22 q 0,1.64 -0.42,2.74 -0.42,1.1 -1.26,1.66 -0.84,0.56 -2.1,0.56 z m 13.8,-0.2 q -1.5,0 -2.48,-0.38 -0.96,-0.4 -1.44,-1.32 -0.48,-0.94 -0.48,-2.52 l 0.02,-9.84 h 2.6 l -0.02,10.02 q 0,0.8 0.42,1.24 0.44,0.42 1.24,0.42 h 1.7 v 2.38 z m -6.12,-8.96 v -2.04 h 7.68 v 2.04 z m 10.54,8.82 v -10.86 h 2.78 v 10.86 z m -1.52,-8.78 v -2.08 h 4.3 v 2.08 z m 2.54,-3.38 q -0.82,0 -1.22,-0.42 -0.38,-0.44 -0.38,-1.08 0,-0.68 0.38,-1.1 0.4,-0.42 1.22,-0.42 0.82,0 1.2,0.42 0.38,0.42 0.38,1.1 0,0.64 -0.38,1.08 -0.38,0.42 -1.2,0.42 z m 7.14,12.16 -3.4,-10.86 h 2.86 l 3.26,10.86 z m 0.82,0 v -2.28 h 2.94 v 2.28 z m 1.1,0 2.8,-10.86 h 2.68 l -2.94,10.86 z m 12.55997,0.38 q -1.44,0 -2.54,-0.46 -1.1,-0.46 -1.86,-1.24 -0.76,-0.8 -1.16,-1.8 -0.38,-1 -0.38,-2.08 v -0.42 q 0,-1.12 0.4,-2.12 0.42,-1.02 1.18,-1.8 0.78,-0.8 1.88,-1.24 1.1,-0.46 2.48,-0.46 1.38,0 2.48,0.46 1.1,0.44 1.86,1.24 0.78,0.78 1.18,1.8 0.4,1 0.4,2.12 v 0.42 q 0,1.08 -0.4,2.08 -0.38,1 -1.14,1.8 -0.76,0.78 -1.86,1.24 -1.1,0.46 -2.52,0.46 z m 0,-2.38 q 1.02,0 1.72,-0.44 0.7,-0.46 1.06,-1.22 0.36,-0.78 0.36,-1.76 0,-1 -0.38,-1.76 -0.36,-0.78 -1.08,-1.22 -0.7,-0.46 -1.68,-0.46 -0.98,0 -1.7,0.46 -0.7,0.44 -1.08,1.22 -0.38,0.76 -0.38,1.76 0,0.98 0.36,1.76 0.38,0.76 1.08,1.22 0.7,0.44 1.72,0.44 z"
     id="text78-2"
     style="-inkscape-font-specification:'Sora Semi-Bold';fill:#ede9e0"
     transform="translate(194.69314,-105.28137)"
     aria-label="CEO Diretor Executivo" />
  <text
     xml:space="preserve"
     id="text81"
     style="font-style:normal;font-variant:normal;font-weight:600;font-stretch:normal;font-size:20px;font-family:Sora;-inkscape-font-specification:'Sora Semi-Bold';text-align:start;writing-mode:lr-tb;direction:ltr;white-space:pre;shape-inside:url(#rect81);display:inline;fill:#ede9e0;fill-opacity:1" />
</svg>
