<?xml version="1.0" encoding="UTF-8" standalone="no"?>
<svg
   id="Camada_1"
   data-name="Camada 1"
   viewBox="0 0 800 126.78"
   version="1.1"
   sodipodi:docname="Assinatura-Azul-Vitor.svg"
   inkscape:version="1.4 (86a8ad7, 2024-10-11)"
   xmlns:inkscape="http://www.inkscape.org/namespaces/inkscape"
   xmlns:sodipodi="http://sodipodi.sourceforge.net/DTD/sodipodi-0.dtd"
   xmlns="http://www.w3.org/2000/svg"
   xmlns:svg="http://www.w3.org/2000/svg">
  <sodipodi:namedview
     id="namedview73"
     pagecolor="#505050"
     bordercolor="#eeeeee"
     borderopacity="1"
     inkscape:showpageshadow="0"
     inkscape:pageopacity="0"
     inkscape:pagecheckerboard="0"
     inkscape:deskcolor="#505050"
     inkscape:zoom="1.5697771"
     inkscape:cx="412.16044"
     inkscape:cy="76.12546"
     inkscape:window-width="1920"
     inkscape:window-height="1009"
     inkscape:window-x="-8"
     inkscape:window-y="-8"
     inkscape:window-maximized="1"
     inkscape:current-layer="Camada_1" />
  <defs
     id="defs1">
    <rect
       x="49.54955"
       y="190.09009"
       width="353.15315"
       height="90.990991"
       id="rect81" />
    <rect
       x="605.18148"
       y="203.21357"
       width="197.48027"
       height="46.503419"
       id="rect79" />
    <rect
       x="-3.1851657"
       y="180.91741"
       width="325.52394"
       height="38.221988"
       id="rect78" />
    <rect
       x="203.8506"
       y="140.78432"
       width="234.42819"
       height="36.310889"
       id="rect77" />
    <rect
       x="541.47817"
       y="151.61389"
       width="254.81325"
       height="35.036822"
       id="rect76" />
    <rect
       x="205.7617"
       y="140.14729"
       width="195.56917"
       height="59.881115"
       id="rect75" />
    <rect
       x="197.48027"
       y="136.32509"
       width="277.74645"
       height="50.962651"
       id="rect74" />
    <rect
       x="196.20621"
       y="156.07312"
       width="280.93161"
       height="43.955286"
       id="rect73" />
    <style
       id="style1">.cls-1{fill:#000144;}.cls-2{fill:#fc561e;}.cls-3{fill:#ede9e0;}.cls-4{fill:none;stroke:#fc561e;stroke-miterlimit:10;}.cls-5{fill:#fff;}</style>
    <rect
       x="541.47815"
       y="151.61389"
       width="254.81325"
       height="35.036823"
       id="rect76-9" />
    <rect
       x="-3.1851656"
       y="180.9174"
       width="325.52393"
       height="38.221989"
       id="rect78-8" />
  </defs>
  <path
     class="cls-1"
     d="M736.61,0H0V92.2H34.58v34.58h702A63.39,63.39,0,0,0,800,63.39h0A63.39,63.39,0,0,0,736.61,0Z"
     id="path1" />
  <path
     class="cls-2"
     d="M194.21,29.43h281a11.25,11.25,0,0,1,11.25,11.25V59.21a11.25,11.25,0,0,1-11.25,11.25H183a0,0,0,0,1,0,0V40.67A11.25,11.25,0,0,1,194.21,29.43Z"
     id="path2" />
  <path
     class="cls-3"
     d="M73.92,22.69,62,48.18a6.52,6.52,0,0,1-11,1.31L40.79,36.67a3.5,3.5,0,0,0-6.23,2.19V92.22h75a11.39,11.39,0,0,0,11.39-11.39v-42a3.5,3.5,0,0,0-6.23-2.18L104.46,49.48a6.52,6.52,0,0,1-11-1.32L81.57,22.69A4.22,4.22,0,0,0,73.92,22.69Z"
     id="path3" />
  <path
     class="cls-3"
     d="M543.81,70.46l-2.59-9.16h1.58l2.52,9.16Zm.38,0v-1.3h1.9v1.3Zm.84,0,1.85-8.85h2.23l2.17,8.85h-1.41l-2.16-8.82h.55l-1.87,8.82Zm5.18,0v-1.3h1.91v1.3Zm.77,0,2.2-9.16h1.49l-2.24,9.16Z"
     id="path47" />
  <path
     class="cls-3"
     d="M558.36,70.46l-2.59-9.16h1.58l2.52,9.16Zm.38,0v-1.3h1.9v1.3Zm.84,0,1.85-8.85h2.23l2.17,8.85h-1.41l-2.16-8.82h.55l-1.87,8.82Zm5.18,0v-1.3h1.91v1.3Zm.77,0,2.2-9.16h1.49L567,70.46Z"
     id="path48" />
  <path
     class="cls-3"
     d="M572.91,70.46l-2.59-9.16h1.58l2.52,9.16Zm.38,0v-1.3h1.91v1.3Zm.84,0L576,61.61h2.23l2.17,8.85H579l-2.16-8.82h.55l-1.87,8.82Zm5.18,0v-1.3h1.91v1.3Zm.77,0,2.2-9.16h1.49l-2.24,9.16Z"
     id="path49" />
  <path
     class="cls-3"
     d="M585,70.46V68.37h2v2.09Z"
     id="path50" />
  <path
     class="cls-3"
     d="M593.43,70.77a4.45,4.45,0,0,1-1.8-.36,4.37,4.37,0,0,1-1.43-1,4.63,4.63,0,0,1-.94-1.51,4.92,4.92,0,0,1-.34-1.86v-.31a5,5,0,0,1,.33-1.83,4.48,4.48,0,0,1,.92-1.51,4,4,0,0,1,1.4-1,4.31,4.31,0,0,1,1.81-.37,4.07,4.07,0,0,1,1.91.44,3.38,3.38,0,0,1,1.4,1.36,5,5,0,0,1,.62,2.4l-.68-1.1V57.93h1.64V70.46H597V66.39h.48a5.31,5.31,0,0,1-.65,2.53,3.54,3.54,0,0,1-1.47,1.41A4.24,4.24,0,0,1,593.43,70.77Zm.23-1.44a3.09,3.09,0,0,0,1.52-.38,2.75,2.75,0,0,0,1.1-1.09,3.21,3.21,0,0,0,.41-1.67V65.4a3,3,0,0,0-.42-1.61,2.84,2.84,0,0,0-1.11-1,3.36,3.36,0,0,0-1.52-.35,2.93,2.93,0,0,0-1.6.43,2.85,2.85,0,0,0-1.08,1.2,4,4,0,0,0-.39,1.82,4,4,0,0,0,.39,1.83,2.91,2.91,0,0,0,1.1,1.2A3.06,3.06,0,0,0,593.66,69.33Z"
     id="path51" />
  <path
     class="cls-3"
     d="M605.65,70.77a5.16,5.16,0,0,1-2.11-.41A4.82,4.82,0,0,1,602,69.27a4.71,4.71,0,0,1-.94-1.52,4.85,4.85,0,0,1-.32-1.72v-.31a4.73,4.73,0,0,1,.33-1.72,4.81,4.81,0,0,1,1-1.53,4.69,4.69,0,0,1,1.55-1.08,5,5,0,0,1,2.07-.4,5.08,5.08,0,0,1,2.08.4,4.75,4.75,0,0,1,1.54,1.08,4.81,4.81,0,0,1,1,1.53,4.73,4.73,0,0,1,.33,1.72V66a4.85,4.85,0,0,1-.32,1.72,4.71,4.71,0,0,1-.94,1.52,4.82,4.82,0,0,1-1.54,1.09A5.12,5.12,0,0,1,605.65,70.77Zm0-1.48a3.29,3.29,0,0,0,1.76-.45,3,3,0,0,0,1.12-1.23,3.89,3.89,0,0,0,.38-1.73,3.82,3.82,0,0,0-.39-1.75,3,3,0,0,0-1.13-1.22,3.22,3.22,0,0,0-1.74-.45,3.26,3.26,0,0,0-1.73.45,3,3,0,0,0-1.13,1.22,3.7,3.7,0,0,0-.4,1.75,3.76,3.76,0,0,0,.39,1.73,2.94,2.94,0,0,0,1.11,1.23A3.29,3.29,0,0,0,605.65,69.29Z"
     id="path52" />
  <path
     class="cls-3"
     d="M613,70.46V61.3h1.3v3.93h-.2a6.39,6.39,0,0,1,.35-2.28,2.94,2.94,0,0,1,1-1.43,3.05,3.05,0,0,1,1.79-.5h.07a3.05,3.05,0,0,1,1.79.5A3,3,0,0,1,620.24,63a6.89,6.89,0,0,1,.34,2.28h-.48a6.38,6.38,0,0,1,.36-2.28A2.83,2.83,0,0,1,623.32,61h.07a3.11,3.11,0,0,1,1.8.5A3,3,0,0,1,626.27,63a6.62,6.62,0,0,1,.35,2.28v5.23H625V64.87a2.48,2.48,0,0,0-.55-1.73,2,2,0,0,0-1.53-.61,2.18,2.18,0,0,0-1.63.65,2.48,2.48,0,0,0-.61,1.79v5.49H619V64.87a2.48,2.48,0,0,0-.55-1.73,2,2,0,0,0-1.53-.61,2.18,2.18,0,0,0-1.63.65,2.48,2.48,0,0,0-.61,1.79v5.49Z"
     id="path53" />
  <path
     class="cls-3"
     d="M628.68,62.6V61.3h3.05v1.3Zm1.87-2.78a1.07,1.07,0,0,1-.82-1.77,1.08,1.08,0,0,1,.82-.29,1,1,0,0,1,1.08,1,1,1,0,0,1-.27.74A1,1,0,0,1,630.55,59.82Zm-.47,10.64V61.3h1.65v9.16Z"
     id="path54" />
  <path
     class="cls-3"
     d="M634.92,70.46V61.3h1.31v3.93H636a6.14,6.14,0,0,1,.37-2.29,3,3,0,0,1,1.12-1.43,3.52,3.52,0,0,1,1.91-.49h.07a3,3,0,0,1,2.56,1.08,5,5,0,0,1,.83,3.13v5.23h-1.64V64.88a2.38,2.38,0,0,0-.6-1.7,2.15,2.15,0,0,0-1.65-.65A2.3,2.3,0,0,0,636.57,65v5.47Z"
     id="path55" />
  <path
     class="cls-3"
     d="M648.44,70.7a4.2,4.2,0,0,1-1.77-.35,2.66,2.66,0,0,1-1.15-1,3.08,3.08,0,0,1-.4-1.61,2.9,2.9,0,0,1,.43-1.64,2.68,2.68,0,0,1,1.28-1,5.56,5.56,0,0,1,2-.34h2.48V66h-2.55a2.19,2.19,0,0,0-1.53.48,1.6,1.6,0,0,0-.53,1.24,1.54,1.54,0,0,0,.53,1.21,2.24,2.24,0,0,0,1.53.47,3,3,0,0,0,1.11-.22,1.93,1.93,0,0,0,.89-.72,2.62,2.62,0,0,0,.38-1.4l.45.66a4,4,0,0,1-.47,1.63,2.6,2.6,0,0,1-1.07,1A3.58,3.58,0,0,1,648.44,70.7Zm3-.24V67.72h-.28V64.54a1.88,1.88,0,0,0-.49-1.42,2,2,0,0,0-1.43-.48h-1.1l-1.08,0-.89.05V61.3c.25,0,.52,0,.8-.06l.86,0h.86a6.71,6.71,0,0,1,2.3.33,2.4,2.4,0,0,1,1.32,1.09,4.07,4.07,0,0,1,.43,2v5.8Z"
     id="path56" />
  <path
     class="cls-3"
     d="M655.45,70.46V68.37h2v2.09Z"
     id="path57" />
  <path
     class="cls-3"
     d="M663.85,70.77a4.45,4.45,0,0,1-1.8-.36,4.27,4.27,0,0,1-1.43-1,4.83,4.83,0,0,1-1-1.51,5.12,5.12,0,0,1-.33-1.86v-.31a5,5,0,0,1,.33-1.83,4.62,4.62,0,0,1,.91-1.51,4.18,4.18,0,0,1,1.41-1A4.28,4.28,0,0,1,663.8,61a4.07,4.07,0,0,1,1.91.44,3.38,3.38,0,0,1,1.4,1.36,5.16,5.16,0,0,1,.62,2.4l-.69-1.1V57.93h1.65V70.46h-1.3V66.39h.48a5.31,5.31,0,0,1-.66,2.53,3.46,3.46,0,0,1-1.46,1.41A4.24,4.24,0,0,1,663.85,70.77Zm.23-1.44A3.12,3.12,0,0,0,665.6,69a2.75,2.75,0,0,0,1.1-1.09,3.31,3.31,0,0,0,.41-1.67V65.4a3,3,0,0,0-.42-1.61,2.84,2.84,0,0,0-1.11-1,3.39,3.39,0,0,0-1.52-.35,2.88,2.88,0,0,0-2.69,1.63,4.11,4.11,0,0,0-.38,1.82,4,4,0,0,0,.39,1.83,2.85,2.85,0,0,0,1.1,1.2A3.06,3.06,0,0,0,664.08,69.33Z"
     id="path58" />
  <path
     class="cls-3"
     d="M675.74,70.77a4.87,4.87,0,0,1-2.07-.41,4.06,4.06,0,0,1-1.43-1.09,4.55,4.55,0,0,1-.81-1.52,5.57,5.57,0,0,1-.27-1.72v-.31a5.63,5.63,0,0,1,.27-1.73,4.65,4.65,0,0,1,.81-1.52,4.08,4.08,0,0,1,1.4-1.08,4.61,4.61,0,0,1,2-.4,4.32,4.32,0,0,1,2.46.64,3.91,3.91,0,0,1,1.44,1.66,5,5,0,0,1,.48,2.16v.74h-8.14V65h6.93l-.37.67a4.36,4.36,0,0,0-.31-1.69,2.53,2.53,0,0,0-.93-1.11,2.86,2.86,0,0,0-1.56-.39,2.76,2.76,0,0,0-1.62.45,2.63,2.63,0,0,0-1,1.21,4.73,4.73,0,0,0-.32,1.79,4.68,4.68,0,0,0,.32,1.76,2.66,2.66,0,0,0,1,1.23,2.93,2.93,0,0,0,1.7.46,3,3,0,0,0,1.76-.48,1.87,1.87,0,0,0,.82-1.12h1.54a3.56,3.56,0,0,1-2.18,2.68A5,5,0,0,1,675.74,70.77Z"
     id="path59" />
  <path
     class="cls-3"
     d="M684.24,70.46l-3.13-9.16h1.72l3,9.16Zm.41,0v-1.3h2v1.3Zm.79,0,2.66-9.16h1.61L687,70.46Z"
     id="path60" />
  <path
     class="cls-4"
     d="m 164.97396,0 v 59.21 a 11.272269,11.25 0 0 0 11.27227,11.25 H 475.15674 A 11.272269,11.25 0 0 0 486.42901,59.21 V 40.67 A 11.272269,11.25 0 0 0 475.15674,29.43 H 193.60051 a 11.262249,11.24 0 0 0 -11.20213,11.24 v 86.11"
     id="path71"
     style="stroke-width:1.00099" />
  <path
     class="cls-5"
     d="M549.29,83.31c2.15,0,2.4,0,3.25,0a4.28,4.28,0,0,1,1.5.28,2.41,2.41,0,0,1,.93.6,2.53,2.53,0,0,1,.6.93,4.52,4.52,0,0,1,.28,1.49c0,.85,0,1.11,0,3.26s0,2.41,0,3.26a4.6,4.6,0,0,1-.28,1.5,2.57,2.57,0,0,1-.6.92,2.43,2.43,0,0,1-.93.61,4.35,4.35,0,0,1-1.5.27c-.85,0-1.1,0-3.25,0s-2.41,0-3.26,0a4.35,4.35,0,0,1-1.5-.27,2.51,2.51,0,0,1-.93-.61,2.57,2.57,0,0,1-.6-.92,4.6,4.6,0,0,1-.28-1.5c0-.85,0-1.11,0-3.26s0-2.41,0-3.26a4.52,4.52,0,0,1,.28-1.49,2.53,2.53,0,0,1,.6-.93,2.48,2.48,0,0,1,.93-.6,4.28,4.28,0,0,1,1.5-.28c.85,0,1.1,0,3.26,0m0-1.45c-2.19,0-2.47,0-3.33,0a6,6,0,0,0-2,.37,4.14,4.14,0,0,0-2.35,2.36,5.9,5.9,0,0,0-.38,2c0,.86,0,1.13,0,3.32s0,2.47,0,3.33a5.89,5.89,0,0,0,.38,2A4.14,4.14,0,0,0,544,97.56a6,6,0,0,0,2,.38c.86,0,1.14,0,3.33,0s2.46,0,3.32,0a6,6,0,0,0,2-.38,4.14,4.14,0,0,0,2.35-2.36,5.89,5.89,0,0,0,.38-2c0-.86.05-1.14.05-3.33s0-2.46-.05-3.32a5.9,5.9,0,0,0-.38-2,4.14,4.14,0,0,0-2.35-2.36,6,6,0,0,0-2-.37c-.86,0-1.13,0-3.32,0Z"
     id="path72" />
  <path
     class="cls-5"
     d="M549.29,85.78a4.14,4.14,0,1,0,4.14,4.14A4.14,4.14,0,0,0,549.29,85.78Zm0,6.83A2.69,2.69,0,1,1,552,89.92,2.68,2.68,0,0,1,549.29,92.61Z"
     id="path73" />
  <circle
     class="cls-5"
     cx="553.59"
     cy="85.62"
     r="0.97"
     id="circle73" />
  <text
     xml:space="preserve"
     id="text74"
     style="font-style:normal;font-variant:normal;font-weight:normal;font-stretch:normal;font-family:Sora;-inkscape-font-specification:Sora;text-align:start;writing-mode:lr-tb;direction:ltr;white-space:pre;shape-inside:url(#rect74);display:inline;fill:#000144;fill-opacity:1" />
  <text
     xml:space="preserve"
     id="text76"
     style="font-style:normal;font-variant:normal;font-weight:normal;font-stretch:normal;font-size:21.3333px;font-family:Sora;-inkscape-font-specification:Sora;text-align:start;writing-mode:lr-tb;direction:ltr;white-space:pre;shape-inside:url(#rect76);display:inline;fill:#ede9e0;fill-opacity:1"
     transform="translate(-2.2814308,-123.76223)"><tspan
       x="541.47852"
       y="170.7032"
       id="tspan3"><tspan
         style="font-weight:600;-inkscape-font-specification:'Sora Semi-Bold'"
         id="tspan2">(48) 98866-8130</tspan></tspan></text>
  <text
     xml:space="preserve"
     id="text77"
     style="font-style:normal;font-variant:normal;font-weight:600;font-stretch:normal;font-size:26.6667px;font-family:Sora;-inkscape-font-specification:'Sora Semi-Bold';text-align:start;writing-mode:lr-tb;direction:ltr;white-space:pre;shape-inside:url(#rect77);display:inline;fill:#000144;fill-opacity:1"
     transform="translate(-10.192531,-104.47343)"><tspan
       x="203.85156"
       y="164.64762"
       id="tspan4">Vitor Macedo</tspan></text>
  <text
     xml:space="preserve"
     id="text79"
     style="font-style:normal;font-variant:normal;font-weight:600;font-stretch:normal;font-size:17.3333px;font-family:Sora;-inkscape-font-specification:'Sora Semi-Bold';text-align:start;writing-mode:lr-tb;direction:ltr;white-space:pre;shape-inside:url(#rect79);display:inline;fill:#ede9e0;fill-opacity:1"
     transform="translate(-41.407154,-124.85849)"><tspan
       x="605.18164"
       y="218.72344"
       id="tspan6"><tspan
         style="font-weight:normal;-inkscape-font-specification:Sora"
         id="tspan5">@domina.devs</tspan></tspan></text>
  <text
     xml:space="preserve"
     style="font-style:normal;font-variant:normal;font-weight:normal;font-stretch:normal;font-size:17.3333px;font-family:Sora;-inkscape-font-specification:Sora;text-align:start;writing-mode:lr-tb;direction:ltr;text-anchor:start;fill:#ede9e0;fill-opacity:1"
     x="733.86218"
     y="250.99106"
     id="text80"><tspan
       sodipodi:role="line"
       id="tspan80"
       x="733.86218"
       y="250.99106" /></text>
  <text
     xml:space="preserve"
     id="text78-2"
     style="font-style:normal;font-variant:normal;font-weight:600;font-stretch:normal;font-size:20px;font-family:Sora;-inkscape-font-specification:'Sora Semi-Bold';text-align:start;writing-mode:lr-tb;direction:ltr;white-space:pre;shape-inside:url(#rect78-8);display:inline;fill:#ede9e0;fill-opacity:1"
     transform="translate(194.69314,-105.28137)"><tspan
       x="-3.1855469"
       y="198.81479"
       id="tspan7">CEO Diretor Executivo</tspan></text>
  <text
     xml:space="preserve"
     id="text81"
     style="font-style:normal;font-variant:normal;font-weight:600;font-stretch:normal;font-size:20px;font-family:Sora;-inkscape-font-specification:'Sora Semi-Bold';text-align:start;writing-mode:lr-tb;direction:ltr;white-space:pre;shape-inside:url(#rect81);display:inline;fill:#ede9e0;fill-opacity:1" />
</svg>
